<svg width="45" height="45" viewBox="0 0 45 45" fill="none" xmlns="http://www.w3.org/2000/svg">
<path d="M16.8258 29.1164V16.1719C16.8281 16.158 16.8258 16.1436 16.8191 16.1312C16.8124 16.1188 16.8017 16.109 16.7888 16.1033C16.7758 16.0977 16.7614 16.0965 16.7477 16.1C16.734 16.1035 16.7219 16.1115 16.7133 16.1227C16.7133 16.1227 14.8992 18.7172 13.7812 19.4836" stroke="#D1D1D1" stroke-width="2.5" stroke-linecap="round"/>
<path d="M24.539 15.8344H24.532C22.3185 15.8344 20.5242 17.6287 20.5242 19.8422V25.1086C20.5242 27.3221 22.3185 29.1164 24.532 29.1164H24.539C26.7525 29.1164 28.5468 27.3221 28.5468 25.1086V19.8422C28.5468 17.6287 26.7525 15.8344 24.539 15.8344Z" stroke="#D1D1D1" stroke-width="2.5"/>
<path d="M38.2711 10.8352L36.443 16.9102L30.368 15.075M36.4641 16.8328C35.1124 13.414 32.5827 10.5912 29.3318 8.87442C26.081 7.15761 22.3233 6.65996 18.7376 7.47134C15.1519 8.28272 11.9746 10.3496 9.77957 13.2988C7.58454 16.2479 6.51651 19.8848 6.7684 23.5525C7.0203 27.2202 8.57551 30.6769 11.1531 33.2982C13.7307 35.9196 17.1608 37.5327 20.8237 37.8463C24.4867 38.1598 28.141 37.1531 31.1266 35.008C34.1123 32.8629 36.2324 29.7208 37.1039 26.1492" stroke="#D1D1D1" stroke-width="2.5" stroke-linecap="round"/>
</svg>
