<svg width="45" height="45" viewBox="0 0 45 45" fill="none" xmlns="http://www.w3.org/2000/svg">
<path d="M33.75 18.75H24.0938L12.8437 7.5H37.5C38.5313 7.5 39.4144 7.8675 40.1494 8.6025C40.8844 9.3375 41.2513 10.22 41.25 11.25V33.5625C41.25 33.9063 41.2188 34.2344 41.1563 34.5469C41.0938 34.8594 40.9688 35.1563 40.7813 35.4375L27.8438 22.5H33.75V18.75ZM38.5312 43.7813L32.1562 37.5H7.5C6.46875 37.5 5.58562 37.1325 4.85062 36.3975C4.11562 35.6625 3.74875 34.78 3.75 33.75V11.25C3.75 10.2188 4.1175 9.33563 4.8525 8.60063C5.5875 7.86563 6.47 7.49875 7.5 7.5V12.75L1.21875 6.46875L3.84375 3.84375L41.1563 41.1563L38.5312 43.7813ZM11.25 22.5H15V20.25L13.5 18.75H11.25V22.5ZM20.9062 26.25H11.25V30H24.6562L20.9062 26.25Z" fill="white" fill-opacity="0.8"/>
</svg>
