<svg width="45" height="45" viewBox="0 0 45 45" fill="none" xmlns="http://www.w3.org/2000/svg">
<path d="M10 10.4269V35.5697C10 37.4869 12.1114 38.6519 13.7374 37.6083L33.4925 25.0369C33.8383 24.818 34.1232 24.5152 34.3206 24.1567C34.518 23.7981 34.6215 23.3955 34.6215 22.9862C34.6215 22.5769 34.518 22.1742 34.3206 21.8157C34.1232 21.4571 33.8383 21.1543 33.4925 20.9354L13.7374 8.38831C13.3714 8.15156 12.9482 8.01799 12.5126 8.00169C12.0769 7.9854 11.645 8.08699 11.2622 8.29574C10.8795 8.5045 10.5603 8.81268 10.3381 9.18777C10.1159 9.56287 9.99913 9.99097 10 10.4269Z" fill="white" fill-opacity="0.8"/>
</svg>
