<svg width="45" height="45" viewBox="0 0 45 45" fill="none" xmlns="http://www.w3.org/2000/svg">
<path d="M6.729 10.8351L8.55713 16.9101L14.6321 15.075M18.9353 29.1164V16.1719C18.9376 16.1579 18.9352 16.1436 18.9285 16.1312C18.9218 16.1188 18.9112 16.109 18.8982 16.1033C18.8853 16.0977 18.8708 16.0965 18.8572 16.1C18.8435 16.1035 18.8314 16.1115 18.8228 16.1226C18.8228 16.1226 17.0087 18.7172 15.8907 19.4836" stroke="#D1D1D1" stroke-width="2.5" stroke-linecap="round"/>
<path d="M26.6484 15.8344H26.6414C24.4279 15.8344 22.6335 17.6287 22.6335 19.8422V25.1086C22.6335 27.3221 24.4279 29.1164 26.6414 29.1164H26.6484C28.8618 29.1164 30.6562 27.3221 30.6562 25.1086V19.8422C30.6562 17.6287 28.8618 15.8344 26.6484 15.8344Z" stroke="#D1D1D1" stroke-width="2.5"/>
<path d="M8.53584 16.8328C9.88752 13.414 12.4173 10.5912 15.6681 8.87442C18.919 7.15761 22.6766 6.65996 26.2623 7.47134C29.848 8.28272 33.0253 10.3496 35.2204 13.2988C37.4154 16.2479 38.4834 19.8848 38.2315 23.5525C37.9796 27.2202 36.4244 30.6769 33.8468 33.2982C31.2692 35.9196 27.8391 37.5327 24.1762 37.8463C20.5132 38.1598 16.8589 37.1531 13.8733 35.008C10.8877 32.8629 8.76758 29.7208 7.896 26.1492" stroke="#D1D1D1" stroke-width="2.5" stroke-linecap="round"/>
</svg>
