<svg width="45" height="45" viewBox="0 0 45 45" fill="none" xmlns="http://www.w3.org/2000/svg">
<path d="M22.5001 29.0625C20.7596 29.0625 19.0904 28.3711 17.8597 27.1404C16.629 25.9097 15.9376 24.2405 15.9376 22.5C15.9376 20.7595 16.629 19.0903 17.8597 17.8596C19.0904 16.6289 20.7596 15.9375 22.5001 15.9375C24.2405 15.9375 25.9097 16.6289 27.1405 17.8596C28.3712 19.0903 29.0626 20.7595 29.0626 22.5C29.0626 24.2405 28.3712 25.9097 27.1405 27.1404C25.9097 28.3711 24.2405 29.0625 22.5001 29.0625ZM36.4313 24.3188C36.5063 23.7188 36.5626 23.1188 36.5626 22.5C36.5626 21.8813 36.5063 21.2625 36.4313 20.625L40.3876 17.5688C40.7438 17.2875 40.8376 16.7813 40.6126 16.3688L36.8626 9.88125C36.6376 9.46875 36.1313 9.3 35.7188 9.46875L31.0501 11.3438C30.0751 10.6125 29.0626 9.975 27.8813 9.50625L27.1876 4.5375C27.1495 4.31666 27.0344 4.11643 26.8628 3.97229C26.6912 3.82815 26.4742 3.7494 26.2501 3.75H18.7501C18.2813 3.75 17.8876 4.0875 17.8126 4.5375L17.1188 9.50625C15.9376 9.975 14.9251 10.6125 13.9501 11.3438L9.28131 9.46875C8.86881 9.3 8.36257 9.46875 8.13757 9.88125L4.38757 16.3688C4.14382 16.7813 4.25632 17.2875 4.61257 17.5688L8.56882 20.625C8.49382 21.2625 8.43757 21.8813 8.43757 22.5C8.43757 23.1188 8.49382 23.7188 8.56882 24.3188L4.61257 27.4313C4.25632 27.7125 4.14382 28.2188 4.38757 28.6313L8.13757 35.1188C8.36257 35.5313 8.86881 35.6813 9.28131 35.5313L13.9501 33.6375C14.9251 34.3875 15.9376 35.025 17.1188 35.4938L17.8126 40.4625C17.8876 40.9125 18.2813 41.25 18.7501 41.25H26.2501C26.7188 41.25 27.1126 40.9125 27.1876 40.4625L27.8813 35.4938C29.0626 35.0063 30.0751 34.3875 31.0501 33.6375L35.7188 35.5313C36.1313 35.6813 36.6376 35.5313 36.8626 35.1188L40.6126 28.6313C40.8376 28.2188 40.7438 27.7125 40.3876 27.4313L36.4313 24.3188Z" fill="white" fill-opacity="0.8"/>
</svg>
