<svg width="45" height="45" viewBox="0 0 45 45" fill="none" xmlns="http://www.w3.org/2000/svg">
<path d="M11.25 22.5H15V18.75H11.25V22.5ZM11.25 30H26.25V26.25H11.25V30ZM30 30H33.75V26.25H30V30ZM18.75 22.5H33.75V18.75H18.75V22.5ZM7.5 37.5C6.46875 37.5 5.58563 37.1325 4.85063 36.3975C4.11563 35.6625 3.74875 34.78 3.75 33.75V11.25C3.75 10.2188 4.1175 9.33563 4.8525 8.60063C5.5875 7.86563 6.47 7.49875 7.5 7.5H37.5C38.5313 7.5 39.4144 7.8675 40.1494 8.6025C40.8844 9.3375 41.2513 10.22 41.25 11.25V33.75C41.25 34.7813 40.8825 35.6644 40.1475 36.3994C39.4125 37.1344 38.53 37.5013 37.5 37.5H7.5Z" fill="white" fill-opacity="0.8"/>
</svg>
