<svg width="236" height="115" viewBox="0 0 236 115" fill="none" xmlns="http://www.w3.org/2000/svg">
<path d="M3.49948 54.7673L225 54.9913L149.109 5.71807C148.558 5.1665 148.248 4.41841 148.248 3.63837C148.248 2.85834 148.558 2.11027 149.109 1.5587C149.661 1.00714 150.409 0.697256 151.189 0.69725C151.969 0.697245 152.717 1.00713 153.269 1.5587L235 55.5C235.552 56.0516 235.861 56.7996 235.861 57.5797C235.861 58.3597 235.552 59.1078 235 59.6594L153.269 113.862C152.717 114.414 151.969 114.723 151.189 114.723C150.409 114.723 149.661 114.414 149.109 113.862C148.558 113.31 148.248 112.562 148.248 111.782C148.248 111.002 148.558 110.254 149.109 109.703L225 60.8769L3.49948 60.6529C3.11304 60.6529 2.73037 60.5767 2.37334 60.4288C2.01631 60.281 1.69189 60.0642 1.41863 59.7909C1.14537 59.5177 0.928602 59.1933 0.78072 58.8362C0.632837 58.4792 0.556714 58.0965 0.556718 57.7101C0.556723 57.3236 0.632837 56.941 0.780725 56.5839C0.928612 56.2269 1.14537 55.9025 1.41863 55.6292C1.69189 55.356 2.01631 55.1392 2.37334 54.9913C2.73037 54.8434 3.11304 54.7673 3.49948 54.7673Z" fill="#8B0E0E"/>
</svg>
